ISO-10303-21;
HEADER;
/* Generated by software containing ST-Developer
 * from STEP Tools, Inc. (www.steptools.com) 
 */

FILE_DESCRIPTION(
/* description */ ('STEP AP242'),
/* implementation_level */ '2;1');

FILE_NAME(
/* name */ 'LWR50L-23-00004-Kamerahalterung-VEN161.step',
/* time_stamp */ '2026-08-04T16:23:01+02:00',
/* author */ (''),
/* organization */ (''),
/* preprocessor_version */ 'ST-DEVELOPER v20.1',
/* originating_system */ 'Autodesk Translation Framework v15.8.0.0',
/* authorisation */ '');

FILE_SCHEMA (('AUTOMOTIVE_DESIGN { 1 0 10303 214 3 1 1 }'));
ENDSEC;

DATA;
#10=MECHANICAL_DESIGN_GEOMETRIC_PRESENTATION_REPRESENTATION('',(#13),#939);
#11=SHAPE_REPRESENTATION_RELATIONSHIP('SRR','None',#945,#12);
#12=ADVANCED_BREP_SHAPE_REPRESENTATION('',(#14),#938);
#13=STYLED_ITEM('',(#954),#14);
#14=MANIFOLD_SOLID_BREP('K\X\F6rper1',#563);
#15=CYLINDRICAL_SURFACE('',#585,1.5);
#16=CYLINDRICAL_SURFACE('',#587,1.5);
#17=CYLINDRICAL_SURFACE('',#589,1.5);
#18=CYLINDRICAL_SURFACE('',#591,1.5);
#19=CYLINDRICAL_SURFACE('',#601,3.1);
#20=CYLINDRICAL_SURFACE('',#606,3.1);
#21=CYLINDRICAL_SURFACE('',#611,4.5);
#22=CYLINDRICAL_SURFACE('',#613,4.49999999999994);
#23=FACE_BOUND('',#95,.T.);
#24=FACE_BOUND('',#98,.T.);
#25=FACE_BOUND('',#101,.T.);
#26=FACE_BOUND('',#104,.T.);
#27=FACE_BOUND('',#111,.T.);
#28=FACE_BOUND('',#112,.T.);
#29=FACE_BOUND('',#117,.T.);
#30=FACE_BOUND('',#118,.T.);
#31=FACE_BOUND('',#123,.T.);
#32=FACE_BOUND('',#126,.T.);
#33=FACE_BOUND('',#131,.T.);
#34=FACE_BOUND('',#132,.T.);
#35=FACE_BOUND('',#135,.T.);
#36=FACE_BOUND('',#136,.T.);
#37=FACE_BOUND('',#138,.T.);
#38=FACE_BOUND('',#139,.T.);
#39=FACE_BOUND('',#141,.T.);
#40=FACE_BOUND('',#142,.T.);
#41=PLANE('',#568);
#42=PLANE('',#573);
#43=PLANE('',#578);
#44=PLANE('',#583);
#45=PLANE('',#593);
#46=PLANE('',#594);
#47=PLANE('',#595);
#48=PLANE('',#596);
#49=PLANE('',#597);
#50=PLANE('',#598);
#51=PLANE('',#599);
#52=PLANE('',#600);
#53=PLANE('',#604);
#54=PLANE('',#609);
#55=PLANE('',#615);
#56=PLANE('',#616);
#57=PLANE('',#617);
#58=PLANE('',#618);
#59=PLANE('',#619);
#60=PLANE('',#620);
#61=FACE_OUTER_BOUND('',#93,.T.);
#62=FACE_OUTER_BOUND('',#94,.T.);
#63=FACE_OUTER_BOUND('',#96,.T.);
#64=FACE_OUTER_BOUND('',#97,.T.);
#65=FACE_OUTER_BOUND('',#99,.T.);
#66=FACE_OUTER_BOUND('',#100,.T.);
#67=FACE_OUTER_BOUND('',#102,.T.);
#68=FACE_OUTER_BOUND('',#103,.T.);
#69=FACE_OUTER_BOUND('',#105,.T.);
#70=FACE_OUTER_BOUND('',#106,.T.);
#71=FACE_OUTER_BOUND('',#107,.T.);
#72=FACE_OUTER_BOUND('',#108,.T.);
#73=FACE_OUTER_BOUND('',#109,.T.);
#74=FACE_OUTER_BOUND('',#110,.T.);
#75=FACE_OUTER_BOUND('',#113,.T.);
#76=FACE_OUTER_BOUND('',#114,.T.);
#77=FACE_OUTER_BOUND('',#115,.T.);
#78=FACE_OUTER_BOUND('',#116,.T.);
#79=FACE_OUTER_BOUND('',#119,.T.);
#80=FACE_OUTER_BOUND('',#120,.T.);
#81=FACE_OUTER_BOUND('',#121,.T.);
#82=FACE_OUTER_BOUND('',#122,.T.);
#83=FACE_OUTER_BOUND('',#124,.T.);
#84=FACE_OUTER_BOUND('',#125,.T.);
#85=FACE_OUTER_BOUND('',#127,.T.);
#86=FACE_OUTER_BOUND('',#128,.T.);
#87=FACE_OUTER_BOUND('',#129,.T.);
#88=FACE_OUTER_BOUND('',#130,.T.);
#89=FACE_OUTER_BOUND('',#133,.T.);
#90=FACE_OUTER_BOUND('',#134,.T.);
#91=FACE_OUTER_BOUND('',#137,.T.);
#92=FACE_OUTER_BOUND('',#140,.T.);
#93=EDGE_LOOP('',(#383,#384,#385,#386));
#94=EDGE_LOOP('',(#387));
#95=EDGE_LOOP('',(#388));
#96=EDGE_LOOP('',(#389,#390,#391,#392));
#97=EDGE_LOOP('',(#393));
#98=EDGE_LOOP('',(#394));
#99=EDGE_LOOP('',(#395,#396,#397,#398));
#100=EDGE_LOOP('',(#399));
#101=EDGE_LOOP('',(#400));
#102=EDGE_LOOP('',(#401,#402,#403,#404));
#103=EDGE_LOOP('',(#405));
#104=EDGE_LOOP('',(#406));
#105=EDGE_LOOP('',(#407,#408,#409,#410));
#106=EDGE_LOOP('',(#411,#412,#413,#414));
#107=EDGE_LOOP('',(#415,#416,#417,#418));
#108=EDGE_LOOP('',(#419,#420,#421,#422));
#109=EDGE_LOOP('',(#423,#424,#425,#426));
#110=EDGE_LOOP('',(#427,#428,#429,#430));
#111=EDGE_LOOP('',(#431));
#112=EDGE_LOOP('',(#432));
#113=EDGE_LOOP('',(#433,#434,#435,#436));
#114=EDGE_LOOP('',(#437,#438,#439,#440));
#115=EDGE_LOOP('',(#441,#442,#443,#444));
#116=EDGE_LOOP('',(#445,#446,#447,#448));
#117=EDGE_LOOP('',(#449));
#118=EDGE_LOOP('',(#450));
#119=EDGE_LOOP('',(#451,#452,#453,#454));
#120=EDGE_LOOP('',(#455,#456,#457,#458));
#121=EDGE_LOOP('',(#459,#460,#461,#462));
#122=EDGE_LOOP('',(#463));
#123=EDGE_LOOP('',(#464));
#124=EDGE_LOOP('',(#465,#466,#467,#468));
#125=EDGE_LOOP('',(#469));
#126=EDGE_LOOP('',(#470));
#127=EDGE_LOOP('',(#471,#472,#473,#474));
#128=EDGE_LOOP('',(#475,#476,#477,#478));
#129=EDGE_LOOP('',(#479,#480,#481,#482));
#130=EDGE_LOOP('',(#483,#484,#485,#486,#487,#488,#489,#490));
#131=EDGE_LOOP('',(#491));
#132=EDGE_LOOP('',(#492));
#133=EDGE_LOOP('',(#493,#494,#495,#496));
#134=EDGE_LOOP('',(#497,#498,#499,#500,#501,#502,#503,#504));
#135=EDGE_LOOP('',(#505));
#136=EDGE_LOOP('',(#506));
#137=EDGE_LOOP('',(#507,#508,#509,#510,#511,#512,#513,#514,#515,#516,#517,
#518));
#138=EDGE_LOOP('',(#519));
#139=EDGE_LOOP('',(#520));
#140=EDGE_LOOP('',(#521,#522,#523,#524));
#141=EDGE_LOOP('',(#525));
#142=EDGE_LOOP('',(#526));
#143=LINE('',#788,#191);
#144=LINE('',#797,#192);
#145=LINE('',#806,#193);
#146=LINE('',#815,#194);
#147=LINE('',#822,#195);
#148=LINE('',#827,#196);
#149=LINE('',#830,#197);
#150=LINE('',#835,#198);
#151=LINE('',#839,#199);
#152=LINE('',#841,#200);
#153=LINE('',#843,#201);
#154=LINE('',#844,#202);
#155=LINE('',#847,#203);
#156=LINE('',#849,#204);
#157=LINE('',#850,#205);
#158=LINE('',#853,#206);
#159=LINE('',#855,#207);
#160=LINE('',#856,#208);
#161=LINE('',#858,#209);
#162=LINE('',#862,#210);
#163=LINE('',#864,#211);
#164=LINE('',#866,#212);
#165=LINE('',#867,#213);
#166=LINE('',#870,#214);
#167=LINE('',#872,#215);
#168=LINE('',#873,#216);
#169=LINE('',#876,#217);
#170=LINE('',#878,#218);
#171=LINE('',#879,#219);
#172=LINE('',#881,#220);
#173=LINE('',#886,#221);
#174=LINE('',#895,#222);
#175=LINE('',#903,#223);
#176=LINE('',#907,#224);
#177=LINE('',#911,#225);
#178=LINE('',#913,#226);
#179=LINE('',#915,#227);
#180=LINE('',#916,#228);
#181=LINE('',#919,#229);
#182=LINE('',#920,#230);
#183=LINE('',#922,#231);
#184=LINE('',#923,#232);
#185=LINE('',#926,#233);
#186=LINE('',#928,#234);
#187=LINE('',#929,#235);
#188=LINE('',#931,#236);
#189=LINE('',#932,#237);
#190=LINE('',#933,#238);
#191=VECTOR('',#627,2.65);
#192=VECTOR('',#638,2.65);
#193=VECTOR('',#649,2.65);
#194=VECTOR('',#660,2.65);
#195=VECTOR('',#669,1.5);
#196=VECTOR('',#676,1.5);
#197=VECTOR('',#679,1.5);
#198=VECTOR('',#686,1.5);
#199=VECTOR('',#689,10.);
#200=VECTOR('',#690,10.);
#201=VECTOR('',#691,10.);
#202=VECTOR('',#692,10.);
#203=VECTOR('',#695,10.);
#204=VECTOR('',#696,10.);
#205=VECTOR('',#697,10.);
#206=VECTOR('',#700,10.);
#207=VECTOR('',#701,10.);
#208=VECTOR('',#702,10.);
#209=VECTOR('',#705,10.);
#210=VECTOR('',#708,10.);
#211=VECTOR('',#709,10.);
#212=VECTOR('',#710,10.);
#213=VECTOR('',#711,10.);
#214=VECTOR('',#714,10.);
#215=VECTOR('',#715,10.);
#216=VECTOR('',#716,10.);
#217=VECTOR('',#719,10.);
#218=VECTOR('',#720,10.);
#219=VECTOR('',#721,10.);
#220=VECTOR('',#724,10.);
#221=VECTOR('',#729,3.1);
#222=VECTOR('',#740,3.1);
#223=VECTOR('',#751,4.5);
#224=VECTOR('',#756,4.49999999999994);
#225=VECTOR('',#759,10.);
#226=VECTOR('',#760,10.);
#227=VECTOR('',#761,10.);
#228=VECTOR('',#762,10.);
#229=VECTOR('',#765,10.);
#230=VECTOR('',#766,10.);
#231=VECTOR('',#767,10.);
#232=VECTOR('',#768,10.);
#233=VECTOR('',#771,10.);
#234=VECTOR('',#772,10.);
#235=VECTOR('',#773,10.);
#236=VECTOR('',#776,10.);
#237=VECTOR('',#777,10.);
#238=VECTOR('',#778,10.);
#239=CIRCLE('',#566,2.65);
#240=CIRCLE('',#567,2.40314222700815);
#241=CIRCLE('',#569,1.5);
#242=CIRCLE('',#571,2.65);
#243=CIRCLE('',#572,2.40314222700815);
#244=CIRCLE('',#574,1.5);
#245=CIRCLE('',#576,2.65);
#246=CIRCLE('',#577,2.40314222700815);
#247=CIRCLE('',#579,1.5);
#248=CIRCLE('',#581,2.65);
#249=CIRCLE('',#582,2.40314222700815);
#250=CIRCLE('',#584,1.5);
#251=CIRCLE('',#586,1.5);
#252=CIRCLE('',#588,1.5);
#253=CIRCLE('',#590,1.5);
#254=CIRCLE('',#592,1.5);
#255=CIRCLE('',#602,3.1);
#256=CIRCLE('',#603,3.1);
#257=CIRCLE('',#605,4.49999999999994);
#258=CIRCLE('',#607,3.1);
#259=CIRCLE('',#608,3.1);
#260=CIRCLE('',#610,4.5);
#261=CIRCLE('',#612,4.5);
#262=CIRCLE('',#614,4.49999999999994);
#263=VERTEX_POINT('',#785);
#264=VERTEX_POINT('',#787);
#265=VERTEX_POINT('',#791);
#266=VERTEX_POINT('',#794);
#267=VERTEX_POINT('',#796);
#268=VERTEX_POINT('',#800);
#269=VERTEX_POINT('',#803);
#270=VERTEX_POINT('',#805);
#271=VERTEX_POINT('',#809);
#272=VERTEX_POINT('',#812);
#273=VERTEX_POINT('',#814);
#274=VERTEX_POINT('',#818);
#275=VERTEX_POINT('',#821);
#276=VERTEX_POINT('',#825);
#277=VERTEX_POINT('',#829);
#278=VERTEX_POINT('',#833);
#279=VERTEX_POINT('',#837);
#280=VERTEX_POINT('',#838);
#281=VERTEX_POINT('',#840);
#282=VERTEX_POINT('',#842);
#283=VERTEX_POINT('',#846);
#284=VERTEX_POINT('',#848);
#285=VERTEX_POINT('',#852);
#286=VERTEX_POINT('',#854);
#287=VERTEX_POINT('',#860);
#288=VERTEX_POINT('',#861);
#289=VERTEX_POINT('',#863);
#290=VERTEX_POINT('',#865);
#291=VERTEX_POINT('',#869);
#292=VERTEX_POINT('',#871);
#293=VERTEX_POINT('',#875);
#294=VERTEX_POINT('',#877);
#295=VERTEX_POINT('',#883);
#296=VERTEX_POINT('',#885);
#297=VERTEX_POINT('',#889);
#298=VERTEX_POINT('',#892);
#299=VERTEX_POINT('',#894);
#300=VERTEX_POINT('',#898);
#301=VERTEX_POINT('',#901);
#302=VERTEX_POINT('',#905);
#303=VERTEX_POINT('',#909);
#304=VERTEX_POINT('',#910);
#305=VERTEX_POINT('',#912);
#306=VERTEX_POINT('',#914);
#307=VERTEX_POINT('',#918);
#308=VERTEX_POINT('',#921);
#309=VERTEX_POINT('',#925);
#310=VERTEX_POINT('',#927);
#311=EDGE_CURVE('',#263,#263,#239,.T.);
#312=EDGE_CURVE('',#263,#264,#143,.T.);
#313=EDGE_CURVE('',#264,#264,#240,.T.);
#314=EDGE_CURVE('',#265,#265,#241,.T.);
#315=EDGE_CURVE('',#266,#266,#242,.T.);
#316=EDGE_CURVE('',#266,#267,#144,.T.);
#317=EDGE_CURVE('',#267,#267,#243,.T.);
#318=EDGE_CURVE('',#268,#268,#244,.T.);
#319=EDGE_CURVE('',#269,#269,#245,.T.);
#320=EDGE_CURVE('',#269,#270,#145,.T.);
#321=EDGE_CURVE('',#270,#270,#246,.T.);
#322=EDGE_CURVE('',#271,#271,#247,.T.);
#323=EDGE_CURVE('',#272,#272,#248,.T.);
#324=EDGE_CURVE('',#272,#273,#146,.T.);
#325=EDGE_CURVE('',#273,#273,#249,.T.);
#326=EDGE_CURVE('',#274,#274,#250,.T.);
#327=EDGE_CURVE('',#274,#275,#147,.T.);
#328=EDGE_CURVE('',#275,#275,#251,.T.);
#329=EDGE_CURVE('',#276,#276,#252,.T.);
#330=EDGE_CURVE('',#276,#268,#148,.T.);
#331=EDGE_CURVE('',#271,#277,#149,.T.);
#332=EDGE_CURVE('',#277,#277,#253,.T.);
#333=EDGE_CURVE('',#278,#278,#254,.T.);
#334=EDGE_CURVE('',#278,#265,#150,.T.);
#335=EDGE_CURVE('',#279,#280,#151,.T.);
#336=EDGE_CURVE('',#279,#281,#152,.T.);
#337=EDGE_CURVE('',#282,#281,#153,.T.);
#338=EDGE_CURVE('',#280,#282,#154,.T.);
#339=EDGE_CURVE('',#283,#279,#155,.T.);
#340=EDGE_CURVE('',#283,#284,#156,.T.);
#341=EDGE_CURVE('',#281,#284,#157,.T.);
#342=EDGE_CURVE('',#285,#283,#158,.T.);
#343=EDGE_CURVE('',#285,#286,#159,.T.);
#344=EDGE_CURVE('',#284,#286,#160,.T.);
#345=EDGE_CURVE('',#286,#282,#161,.T.);
#346=EDGE_CURVE('',#287,#288,#162,.T.);
#347=EDGE_CURVE('',#287,#289,#163,.T.);
#348=EDGE_CURVE('',#290,#289,#164,.T.);
#349=EDGE_CURVE('',#288,#290,#165,.T.);
#350=EDGE_CURVE('',#288,#291,#166,.T.);
#351=EDGE_CURVE('',#292,#290,#167,.T.);
#352=EDGE_CURVE('',#291,#292,#168,.T.);
#353=EDGE_CURVE('',#291,#293,#169,.T.);
#354=EDGE_CURVE('',#294,#292,#170,.T.);
#355=EDGE_CURVE('',#293,#294,#171,.T.);
#356=EDGE_CURVE('',#289,#294,#172,.T.);
#357=EDGE_CURVE('',#295,#295,#255,.T.);
#358=EDGE_CURVE('',#295,#296,#173,.T.);
#359=EDGE_CURVE('',#296,#296,#256,.T.);
#360=EDGE_CURVE('',#297,#297,#257,.T.);
#361=EDGE_CURVE('',#298,#298,#258,.T.);
#362=EDGE_CURVE('',#298,#299,#174,.T.);
#363=EDGE_CURVE('',#299,#299,#259,.T.);
#364=EDGE_CURVE('',#300,#300,#260,.T.);
#365=EDGE_CURVE('',#301,#301,#261,.T.);
#366=EDGE_CURVE('',#301,#300,#175,.T.);
#367=EDGE_CURVE('',#302,#302,#262,.T.);
#368=EDGE_CURVE('',#302,#297,#176,.T.);
#369=EDGE_CURVE('',#303,#304,#177,.T.);
#370=EDGE_CURVE('',#303,#305,#178,.T.);
#371=EDGE_CURVE('',#306,#305,#179,.T.);
#372=EDGE_CURVE('',#304,#306,#180,.T.);
#373=EDGE_CURVE('',#304,#307,#181,.T.);
#374=EDGE_CURVE('',#280,#306,#182,.T.);
#375=EDGE_CURVE('',#308,#285,#183,.T.);
#376=EDGE_CURVE('',#307,#308,#184,.T.);
#377=EDGE_CURVE('',#307,#309,#185,.T.);
#378=EDGE_CURVE('',#310,#308,#186,.T.);
#379=EDGE_CURVE('',#309,#310,#187,.T.);
#380=EDGE_CURVE('',#309,#303,#188,.T.);
#381=EDGE_CURVE('',#293,#310,#189,.T.);
#382=EDGE_CURVE('',#305,#287,#190,.T.);
#383=ORIENTED_EDGE('',*,*,#311,.F.);
#384=ORIENTED_EDGE('',*,*,#312,.T.);
#385=ORIENTED_EDGE('',*,*,#313,.F.);
#386=ORIENTED_EDGE('',*,*,#312,.F.);
#387=ORIENTED_EDGE('',*,*,#313,.T.);
#388=ORIENTED_EDGE('',*,*,#314,.F.);
#389=ORIENTED_EDGE('',*,*,#315,.F.);
#390=ORIENTED_EDGE('',*,*,#316,.T.);
#391=ORIENTED_EDGE('',*,*,#317,.F.);
#392=ORIENTED_EDGE('',*,*,#316,.F.);
#393=ORIENTED_EDGE('',*,*,#317,.T.);
#394=ORIENTED_EDGE('',*,*,#318,.F.);
#395=ORIENTED_EDGE('',*,*,#319,.F.);
#396=ORIENTED_EDGE('',*,*,#320,.T.);
#397=ORIENTED_EDGE('',*,*,#321,.F.);
#398=ORIENTED_EDGE('',*,*,#320,.F.);
#399=ORIENTED_EDGE('',*,*,#321,.T.);
#400=ORIENTED_EDGE('',*,*,#322,.F.);
#401=ORIENTED_EDGE('',*,*,#323,.F.);
#402=ORIENTED_EDGE('',*,*,#324,.T.);
#403=ORIENTED_EDGE('',*,*,#325,.F.);
#404=ORIENTED_EDGE('',*,*,#324,.F.);
#405=ORIENTED_EDGE('',*,*,#325,.T.);
#406=ORIENTED_EDGE('',*,*,#326,.F.);
#407=ORIENTED_EDGE('',*,*,#326,.T.);
#408=ORIENTED_EDGE('',*,*,#327,.T.);
#409=ORIENTED_EDGE('',*,*,#328,.F.);
#410=ORIENTED_EDGE('',*,*,#327,.F.);
#411=ORIENTED_EDGE('',*,*,#329,.F.);
#412=ORIENTED_EDGE('',*,*,#330,.T.);
#413=ORIENTED_EDGE('',*,*,#318,.T.);
#414=ORIENTED_EDGE('',*,*,#330,.F.);
#415=ORIENTED_EDGE('',*,*,#322,.T.);
#416=ORIENTED_EDGE('',*,*,#331,.T.);
#417=ORIENTED_EDGE('',*,*,#332,.F.);
#418=ORIENTED_EDGE('',*,*,#331,.F.);
#419=ORIENTED_EDGE('',*,*,#333,.F.);
#420=ORIENTED_EDGE('',*,*,#334,.T.);
#421=ORIENTED_EDGE('',*,*,#314,.T.);
#422=ORIENTED_EDGE('',*,*,#334,.F.);
#423=ORIENTED_EDGE('',*,*,#335,.F.);
#424=ORIENTED_EDGE('',*,*,#336,.T.);
#425=ORIENTED_EDGE('',*,*,#337,.F.);
#426=ORIENTED_EDGE('',*,*,#338,.F.);
#427=ORIENTED_EDGE('',*,*,#339,.F.);
#428=ORIENTED_EDGE('',*,*,#340,.T.);
#429=ORIENTED_EDGE('',*,*,#341,.F.);
#430=ORIENTED_EDGE('',*,*,#336,.F.);
#431=ORIENTED_EDGE('',*,*,#329,.T.);
#432=ORIENTED_EDGE('',*,*,#333,.T.);
#433=ORIENTED_EDGE('',*,*,#342,.F.);
#434=ORIENTED_EDGE('',*,*,#343,.T.);
#435=ORIENTED_EDGE('',*,*,#344,.F.);
#436=ORIENTED_EDGE('',*,*,#340,.F.);
#437=ORIENTED_EDGE('',*,*,#341,.T.);
#438=ORIENTED_EDGE('',*,*,#344,.T.);
#439=ORIENTED_EDGE('',*,*,#345,.T.);
#440=ORIENTED_EDGE('',*,*,#337,.T.);
#441=ORIENTED_EDGE('',*,*,#346,.F.);
#442=ORIENTED_EDGE('',*,*,#347,.T.);
#443=ORIENTED_EDGE('',*,*,#348,.F.);
#444=ORIENTED_EDGE('',*,*,#349,.F.);
#445=ORIENTED_EDGE('',*,*,#350,.F.);
#446=ORIENTED_EDGE('',*,*,#349,.T.);
#447=ORIENTED_EDGE('',*,*,#351,.F.);
#448=ORIENTED_EDGE('',*,*,#352,.F.);
#449=ORIENTED_EDGE('',*,*,#328,.T.);
#450=ORIENTED_EDGE('',*,*,#332,.T.);
#451=ORIENTED_EDGE('',*,*,#353,.F.);
#452=ORIENTED_EDGE('',*,*,#352,.T.);
#453=ORIENTED_EDGE('',*,*,#354,.F.);
#454=ORIENTED_EDGE('',*,*,#355,.F.);
#455=ORIENTED_EDGE('',*,*,#356,.T.);
#456=ORIENTED_EDGE('',*,*,#354,.T.);
#457=ORIENTED_EDGE('',*,*,#351,.T.);
#458=ORIENTED_EDGE('',*,*,#348,.T.);
#459=ORIENTED_EDGE('',*,*,#357,.F.);
#460=ORIENTED_EDGE('',*,*,#358,.T.);
#461=ORIENTED_EDGE('',*,*,#359,.T.);
#462=ORIENTED_EDGE('',*,*,#358,.F.);
#463=ORIENTED_EDGE('',*,*,#360,.F.);
#464=ORIENTED_EDGE('',*,*,#357,.T.);
#465=ORIENTED_EDGE('',*,*,#361,.F.);
#466=ORIENTED_EDGE('',*,*,#362,.T.);
#467=ORIENTED_EDGE('',*,*,#363,.T.);
#468=ORIENTED_EDGE('',*,*,#362,.F.);
#469=ORIENTED_EDGE('',*,*,#364,.F.);
#470=ORIENTED_EDGE('',*,*,#361,.T.);
#471=ORIENTED_EDGE('',*,*,#365,.F.);
#472=ORIENTED_EDGE('',*,*,#366,.T.);
#473=ORIENTED_EDGE('',*,*,#364,.T.);
#474=ORIENTED_EDGE('',*,*,#366,.F.);
#475=ORIENTED_EDGE('',*,*,#367,.F.);
#476=ORIENTED_EDGE('',*,*,#368,.T.);
#477=ORIENTED_EDGE('',*,*,#360,.T.);
#478=ORIENTED_EDGE('',*,*,#368,.F.);
#479=ORIENTED_EDGE('',*,*,#369,.F.);
#480=ORIENTED_EDGE('',*,*,#370,.T.);
#481=ORIENTED_EDGE('',*,*,#371,.F.);
#482=ORIENTED_EDGE('',*,*,#372,.F.);
#483=ORIENTED_EDGE('',*,*,#373,.F.);
#484=ORIENTED_EDGE('',*,*,#372,.T.);
#485=ORIENTED_EDGE('',*,*,#374,.F.);
#486=ORIENTED_EDGE('',*,*,#338,.T.);
#487=ORIENTED_EDGE('',*,*,#345,.F.);
#488=ORIENTED_EDGE('',*,*,#343,.F.);
#489=ORIENTED_EDGE('',*,*,#375,.F.);
#490=ORIENTED_EDGE('',*,*,#376,.F.);
#491=ORIENTED_EDGE('',*,*,#311,.T.);
#492=ORIENTED_EDGE('',*,*,#315,.T.);
#493=ORIENTED_EDGE('',*,*,#377,.F.);
#494=ORIENTED_EDGE('',*,*,#376,.T.);
#495=ORIENTED_EDGE('',*,*,#378,.F.);
#496=ORIENTED_EDGE('',*,*,#379,.F.);
#497=ORIENTED_EDGE('',*,*,#380,.F.);
#498=ORIENTED_EDGE('',*,*,#379,.T.);
#499=ORIENTED_EDGE('',*,*,#381,.F.);
#500=ORIENTED_EDGE('',*,*,#355,.T.);
#501=ORIENTED_EDGE('',*,*,#356,.F.);
#502=ORIENTED_EDGE('',*,*,#347,.F.);
#503=ORIENTED_EDGE('',*,*,#382,.F.);
#504=ORIENTED_EDGE('',*,*,#370,.F.);
#505=ORIENTED_EDGE('',*,*,#319,.T.);
#506=ORIENTED_EDGE('',*,*,#323,.T.);
#507=ORIENTED_EDGE('',*,*,#382,.T.);
#508=ORIENTED_EDGE('',*,*,#346,.T.);
#509=ORIENTED_EDGE('',*,*,#350,.T.);
#510=ORIENTED_EDGE('',*,*,#353,.T.);
#511=ORIENTED_EDGE('',*,*,#381,.T.);
#512=ORIENTED_EDGE('',*,*,#378,.T.);
#513=ORIENTED_EDGE('',*,*,#375,.T.);
#514=ORIENTED_EDGE('',*,*,#342,.T.);
#515=ORIENTED_EDGE('',*,*,#339,.T.);
#516=ORIENTED_EDGE('',*,*,#335,.T.);
#517=ORIENTED_EDGE('',*,*,#374,.T.);
#518=ORIENTED_EDGE('',*,*,#371,.T.);
#519=ORIENTED_EDGE('',*,*,#367,.T.);
#520=ORIENTED_EDGE('',*,*,#365,.T.);
#521=ORIENTED_EDGE('',*,*,#380,.T.);
#522=ORIENTED_EDGE('',*,*,#369,.T.);
#523=ORIENTED_EDGE('',*,*,#373,.T.);
#524=ORIENTED_EDGE('',*,*,#377,.T.);
#525=ORIENTED_EDGE('',*,*,#359,.F.);
#526=ORIENTED_EDGE('',*,*,#363,.F.);
#527=CONICAL_SURFACE('',#565,2.65,0.174532925199433);
#528=CONICAL_SURFACE('',#570,2.65,0.174532925199433);
#529=CONICAL_SURFACE('',#575,2.65,0.174532925199433);
#530=CONICAL_SURFACE('',#580,2.65,0.174532925199433);
#531=ADVANCED_FACE('',(#61),#527,.F.);
#532=ADVANCED_FACE('',(#62,#23),#41,.T.);
#533=ADVANCED_FACE('',(#63),#528,.F.);
#534=ADVANCED_FACE('',(#64,#24),#42,.T.);
#535=ADVANCED_FACE('',(#65),#529,.F.);
#536=ADVANCED_FACE('',(#66,#25),#43,.T.);
#537=ADVANCED_FACE('',(#67),#530,.F.);
#538=ADVANCED_FACE('',(#68,#26),#44,.T.);
#539=ADVANCED_FACE('',(#69),#15,.F.);
#540=ADVANCED_FACE('',(#70),#16,.F.);
#541=ADVANCED_FACE('',(#71),#17,.F.);
#542=ADVANCED_FACE('',(#72),#18,.F.);
#543=ADVANCED_FACE('',(#73),#45,.T.);
#544=ADVANCED_FACE('',(#74,#27,#28),#46,.T.);
#545=ADVANCED_FACE('',(#75),#47,.T.);
#546=ADVANCED_FACE('',(#76),#48,.T.);
#547=ADVANCED_FACE('',(#77),#49,.T.);
#548=ADVANCED_FACE('',(#78,#29,#30),#50,.T.);
#549=ADVANCED_FACE('',(#79),#51,.T.);
#550=ADVANCED_FACE('',(#80),#52,.T.);
#551=ADVANCED_FACE('',(#81),#19,.F.);
#552=ADVANCED_FACE('',(#82,#31),#53,.T.);
#553=ADVANCED_FACE('',(#83),#20,.F.);
#554=ADVANCED_FACE('',(#84,#32),#54,.T.);
#555=ADVANCED_FACE('',(#85),#21,.F.);
#556=ADVANCED_FACE('',(#86),#22,.F.);
#557=ADVANCED_FACE('',(#87),#55,.T.);
#558=ADVANCED_FACE('',(#88,#33,#34),#56,.T.);
#559=ADVANCED_FACE('',(#89),#57,.T.);
#560=ADVANCED_FACE('',(#90,#35,#36),#58,.T.);
#561=ADVANCED_FACE('',(#91,#37,#38),#59,.T.);
#562=ADVANCED_FACE('',(#92,#39,#40),#60,.F.);
#563=CLOSED_SHELL('',(#531,#532,#533,#534,#535,#536,#537,#538,#539,#540,
#541,#542,#543,#544,#545,#546,#547,#548,#549,#550,#551,#552,#553,#554,#555,
#556,#557,#558,#559,#560,#561,#562));
#564=AXIS2_PLACEMENT_3D('',#783,#621,#622);
#565=AXIS2_PLACEMENT_3D('',#784,#623,#624);
#566=AXIS2_PLACEMENT_3D('',#786,#625,#626);
#567=AXIS2_PLACEMENT_3D('',#789,#628,#629);
#568=AXIS2_PLACEMENT_3D('',#790,#630,#631);
#569=AXIS2_PLACEMENT_3D('',#792,#632,#633);
#570=AXIS2_PLACEMENT_3D('',#793,#634,#635);
#571=AXIS2_PLACEMENT_3D('',#795,#636,#637);
#572=AXIS2_PLACEMENT_3D('',#798,#639,#640);
#573=AXIS2_PLACEMENT_3D('',#799,#641,#642);
#574=AXIS2_PLACEMENT_3D('',#801,#643,#644);
#575=AXIS2_PLACEMENT_3D('',#802,#645,#646);
#576=AXIS2_PLACEMENT_3D('',#804,#647,#648);
#577=AXIS2_PLACEMENT_3D('',#807,#650,#651);
#578=AXIS2_PLACEMENT_3D('',#808,#652,#653);
#579=AXIS2_PLACEMENT_3D('',#810,#654,#655);
#580=AXIS2_PLACEMENT_3D('',#811,#656,#657);
#581=AXIS2_PLACEMENT_3D('',#813,#658,#659);
#582=AXIS2_PLACEMENT_3D('',#816,#661,#662);
#583=AXIS2_PLACEMENT_3D('',#817,#663,#664);
#584=AXIS2_PLACEMENT_3D('',#819,#665,#666);
#585=AXIS2_PLACEMENT_3D('',#820,#667,#668);
#586=AXIS2_PLACEMENT_3D('',#823,#670,#671);
#587=AXIS2_PLACEMENT_3D('',#824,#672,#673);
#588=AXIS2_PLACEMENT_3D('',#826,#674,#675);
#589=AXIS2_PLACEMENT_3D('',#828,#677,#678);
#590=AXIS2_PLACEMENT_3D('',#831,#680,#681);
#591=AXIS2_PLACEMENT_3D('',#832,#682,#683);
#592=AXIS2_PLACEMENT_3D('',#834,#684,#685);
#593=AXIS2_PLACEMENT_3D('',#836,#687,#688);
#594=AXIS2_PLACEMENT_3D('',#845,#693,#694);
#595=AXIS2_PLACEMENT_3D('',#851,#698,#699);
#596=AXIS2_PLACEMENT_3D('',#857,#703,#704);
#597=AXIS2_PLACEMENT_3D('',#859,#706,#707);
#598=AXIS2_PLACEMENT_3D('',#868,#712,#713);
#599=AXIS2_PLACEMENT_3D('',#874,#717,#718);
#600=AXIS2_PLACEMENT_3D('',#880,#722,#723);
#601=AXIS2_PLACEMENT_3D('',#882,#725,#726);
#602=AXIS2_PLACEMENT_3D('',#884,#727,#728);
#603=AXIS2_PLACEMENT_3D('',#887,#730,#731);
#604=AXIS2_PLACEMENT_3D('',#888,#732,#733);
#605=AXIS2_PLACEMENT_3D('',#890,#734,#735);
#606=AXIS2_PLACEMENT_3D('',#891,#736,#737);
#607=AXIS2_PLACEMENT_3D('',#893,#738,#739);
#608=AXIS2_PLACEMENT_3D('',#896,#741,#742);
#609=AXIS2_PLACEMENT_3D('',#897,#743,#744);
#610=AXIS2_PLACEMENT_3D('',#899,#745,#746);
#611=AXIS2_PLACEMENT_3D('',#900,#747,#748);
#612=AXIS2_PLACEMENT_3D('',#902,#749,#750);
#613=AXIS2_PLACEMENT_3D('',#904,#752,#753);
#614=AXIS2_PLACEMENT_3D('',#906,#754,#755);
#615=AXIS2_PLACEMENT_3D('',#908,#757,#758);
#616=AXIS2_PLACEMENT_3D('',#917,#763,#764);
#617=AXIS2_PLACEMENT_3D('',#924,#769,#770);
#618=AXIS2_PLACEMENT_3D('',#930,#774,#775);
#619=AXIS2_PLACEMENT_3D('',#934,#779,#780);
#620=AXIS2_PLACEMENT_3D('',#935,#781,#782);
#621=DIRECTION('axis',(0.,0.,1.));
#622=DIRECTION('refdir',(1.,0.,0.));
#623=DIRECTION('center_axis',(0.,0.,1.));
#624=DIRECTION('ref_axis',(-1.,0.,0.));
#625=DIRECTION('center_axis',(0.,0.,-1.));
#626=DIRECTION('ref_axis',(-1.,0.,0.));
#627=DIRECTION('',(-0.17364817766693,2.12657684957577E-17,-0.984807753012208));
#628=DIRECTION('center_axis',(0.,0.,1.));
#629=DIRECTION('ref_axis',(-1.,0.,0.));
#630=DIRECTION('center_axis',(0.,0.,1.));
#631=DIRECTION('ref_axis',(-1.,0.,0.));
#632=DIRECTION('center_axis',(0.,0.,1.));
#633=DIRECTION('ref_axis',(1.,0.,0.));
#634=DIRECTION('center_axis',(0.,0.,1.));
#635=DIRECTION('ref_axis',(-1.,0.,0.));
#636=DIRECTION('center_axis',(0.,0.,-1.));
#637=DIRECTION('ref_axis',(-1.,0.,0.));
#638=DIRECTION('',(-0.17364817766693,2.12657684957577E-17,-0.984807753012208));
#639=DIRECTION('center_axis',(0.,0.,1.));
#640=DIRECTION('ref_axis',(-1.,0.,0.));
#641=DIRECTION('center_axis',(0.,0.,1.));
#642=DIRECTION('ref_axis',(-1.,0.,0.));
#643=DIRECTION('center_axis',(0.,0.,1.));
#644=DIRECTION('ref_axis',(1.,0.,0.));
#645=DIRECTION('center_axis',(0.,0.,-1.));
#646=DIRECTION('ref_axis',(1.,0.,0.));
#647=DIRECTION('center_axis',(0.,0.,1.));
#648=DIRECTION('ref_axis',(1.,0.,0.));
#649=DIRECTION('',(0.17364817766693,2.12657684957577E-17,0.984807753012208));
#650=DIRECTION('center_axis',(0.,0.,-1.));
#651=DIRECTION('ref_axis',(1.,0.,0.));
#652=DIRECTION('center_axis',(0.,0.,-1.));
#653=DIRECTION('ref_axis',(1.,0.,0.));
#654=DIRECTION('center_axis',(0.,0.,-1.));
#655=DIRECTION('ref_axis',(1.,0.,0.));
#656=DIRECTION('center_axis',(0.,0.,-1.));
#657=DIRECTION('ref_axis',(1.,0.,0.));
#658=DIRECTION('center_axis',(0.,0.,1.));
#659=DIRECTION('ref_axis',(1.,0.,0.));
#660=DIRECTION('',(0.17364817766693,2.12657684957577E-17,0.984807753012208));
#661=DIRECTION('center_axis',(0.,0.,-1.));
#662=DIRECTION('ref_axis',(1.,0.,0.));
#663=DIRECTION('center_axis',(0.,0.,-1.));
#664=DIRECTION('ref_axis',(1.,0.,0.));
#665=DIRECTION('center_axis',(0.,0.,-1.));
#666=DIRECTION('ref_axis',(1.,0.,0.));
#667=DIRECTION('center_axis',(0.,0.,1.));
#668=DIRECTION('ref_axis',(1.,0.,0.));
#669=DIRECTION('',(0.,0.,1.));
#670=DIRECTION('center_axis',(0.,0.,-1.));
#671=DIRECTION('ref_axis',(1.,0.,0.));
#672=DIRECTION('center_axis',(0.,0.,1.));
#673=DIRECTION('ref_axis',(1.,0.,0.));
#674=DIRECTION('center_axis',(0.,0.,1.));
#675=DIRECTION('ref_axis',(1.,0.,0.));
#676=DIRECTION('',(0.,0.,1.));
#677=DIRECTION('center_axis',(0.,0.,1.));
#678=DIRECTION('ref_axis',(1.,0.,0.));
#679=DIRECTION('',(0.,0.,1.));
#680=DIRECTION('center_axis',(0.,0.,-1.));
#681=DIRECTION('ref_axis',(1.,0.,0.));
#682=DIRECTION('center_axis',(0.,0.,1.));
#683=DIRECTION('ref_axis',(1.,0.,0.));
#684=DIRECTION('center_axis',(0.,0.,1.));
#685=DIRECTION('ref_axis',(1.,0.,0.));
#686=DIRECTION('',(0.,0.,1.));
#687=DIRECTION('center_axis',(0.,-1.,0.));
#688=DIRECTION('ref_axis',(0.,0.,-1.));
#689=DIRECTION('',(0.,0.,1.));
#690=DIRECTION('',(1.,0.,0.));
#691=DIRECTION('',(0.,0.,-1.));
#692=DIRECTION('',(1.,0.,0.));
#693=DIRECTION('center_axis',(0.,0.,-1.));
#694=DIRECTION('ref_axis',(0.,1.,0.));
#695=DIRECTION('',(0.,-1.,0.));
#696=DIRECTION('',(1.,0.,0.));
#697=DIRECTION('',(0.,1.,0.));
#698=DIRECTION('center_axis',(0.,1.,0.));
#699=DIRECTION('ref_axis',(0.,0.,1.));
#700=DIRECTION('',(0.,0.,-1.));
#701=DIRECTION('',(1.,0.,0.));
#702=DIRECTION('',(0.,0.,1.));
#703=DIRECTION('center_axis',(1.,0.,0.));
#704=DIRECTION('ref_axis',(0.,0.,-1.));
#705=DIRECTION('',(0.,-1.,0.));
#706=DIRECTION('center_axis',(0.,-1.,0.));
#707=DIRECTION('ref_axis',(0.,0.,-1.));
#708=DIRECTION('',(0.,0.,1.));
#709=DIRECTION('',(1.,0.,0.));
#710=DIRECTION('',(0.,0.,-1.));
#711=DIRECTION('',(1.,0.,0.));
#712=DIRECTION('center_axis',(0.,0.,1.));
#713=DIRECTION('ref_axis',(0.,-1.,0.));
#714=DIRECTION('',(0.,1.,0.));
#715=DIRECTION('',(0.,-1.,0.));
#716=DIRECTION('',(1.,0.,0.));
#717=DIRECTION('center_axis',(0.,1.,0.));
#718=DIRECTION('ref_axis',(0.,0.,1.));
#719=DIRECTION('',(0.,0.,-1.));
#720=DIRECTION('',(0.,0.,1.));
#721=DIRECTION('',(1.,0.,0.));
#722=DIRECTION('center_axis',(1.,0.,0.));
#723=DIRECTION('ref_axis',(0.,0.,-1.));
#724=DIRECTION('',(0.,1.,0.));
#725=DIRECTION('center_axis',(1.,0.,0.));
#726=DIRECTION('ref_axis',(0.,1.,0.));
#727=DIRECTION('center_axis',(-1.,0.,0.));
#728=DIRECTION('ref_axis',(0.,1.,0.));
#729=DIRECTION('',(-1.,0.,0.));
#730=DIRECTION('center_axis',(-1.,0.,0.));
#731=DIRECTION('ref_axis',(0.,1.,0.));
#732=DIRECTION('center_axis',(1.,0.,0.));
#733=DIRECTION('ref_axis',(0.,1.,0.));
#734=DIRECTION('center_axis',(-1.,0.,0.));
#735=DIRECTION('ref_axis',(0.,1.,0.));
#736=DIRECTION('center_axis',(1.,0.,0.));
#737=DIRECTION('ref_axis',(0.,1.,0.));
#738=DIRECTION('center_axis',(-1.,0.,0.));
#739=DIRECTION('ref_axis',(0.,1.,0.));
#740=DIRECTION('',(-1.,0.,0.));
#741=DIRECTION('center_axis',(-1.,0.,0.));
#742=DIRECTION('ref_axis',(0.,1.,0.));
#743=DIRECTION('center_axis',(1.,0.,0.));
#744=DIRECTION('ref_axis',(0.,1.,0.));
#745=DIRECTION('center_axis',(-1.,0.,0.));
#746=DIRECTION('ref_axis',(0.,1.,0.));
#747=DIRECTION('center_axis',(1.,0.,0.));
#748=DIRECTION('ref_axis',(0.,1.,0.));
#749=DIRECTION('center_axis',(-1.,0.,0.));
#750=DIRECTION('ref_axis',(0.,1.,0.));
#751=DIRECTION('',(-1.,0.,0.));
#752=DIRECTION('center_axis',(1.,0.,0.));
#753=DIRECTION('ref_axis',(0.,1.,0.));
#754=DIRECTION('center_axis',(-1.,0.,0.));
#755=DIRECTION('ref_axis',(0.,1.,0.));
#756=DIRECTION('',(-1.,0.,0.));
#757=DIRECTION('center_axis',(0.,-1.,0.));
#758=DIRECTION('ref_axis',(0.,0.,-1.));
#759=DIRECTION('',(0.,0.,1.));
#760=DIRECTION('',(1.,0.,0.));
#761=DIRECTION('',(0.,0.,-1.));
#762=DIRECTION('',(1.,0.,0.));
#763=DIRECTION('center_axis',(0.,0.,1.));
#764=DIRECTION('ref_axis',(0.,-1.,0.));
#765=DIRECTION('',(0.,1.,0.));
#766=DIRECTION('',(0.,-1.,0.));
#767=DIRECTION('',(0.,-1.,0.));
#768=DIRECTION('',(1.,0.,0.));
#769=DIRECTION('center_axis',(0.,1.,0.));
#770=DIRECTION('ref_axis',(0.,0.,1.));
#771=DIRECTION('',(0.,0.,-1.));
#772=DIRECTION('',(0.,0.,1.));
#773=DIRECTION('',(1.,0.,0.));
#774=DIRECTION('center_axis',(0.,0.,-1.));
#775=DIRECTION('ref_axis',(0.,1.,0.));
#776=DIRECTION('',(0.,-1.,0.));
#777=DIRECTION('',(0.,1.,0.));
#778=DIRECTION('',(0.,1.,0.));
#779=DIRECTION('center_axis',(1.,0.,0.));
#780=DIRECTION('ref_axis',(0.,1.,0.));
#781=DIRECTION('center_axis',(1.,0.,0.));
#782=DIRECTION('ref_axis',(0.,1.,0.));
#783=CARTESIAN_POINT('',(0.,0.,0.));
#784=CARTESIAN_POINT('Origin',(34.5,-35.406317196031,23.7625));
#785=CARTESIAN_POINT('',(37.15,-35.406317196031,23.7625));
#786=CARTESIAN_POINT('Origin',(34.5,-35.406317196031,23.7625));
#787=CARTESIAN_POINT('',(36.9031422270081,-35.406317196031,22.3625));
#788=CARTESIAN_POINT('',(37.15,-35.406317196031,23.7625));
#789=CARTESIAN_POINT('Origin',(34.5,-35.406317196031,22.3625));
#790=CARTESIAN_POINT('Origin',(34.5,-35.406317196031,22.3625));
#791=CARTESIAN_POINT('',(33.,-35.406317196031,22.3625));
#792=CARTESIAN_POINT('Origin',(34.5,-35.406317196031,22.3625));
#793=CARTESIAN_POINT('Origin',(54.5,-35.406317196031,23.7625));
#794=CARTESIAN_POINT('',(57.15,-35.406317196031,23.7625));
#795=CARTESIAN_POINT('Origin',(54.5,-35.406317196031,23.7625));
#796=CARTESIAN_POINT('',(56.9031422270081,-35.406317196031,22.3625));
#797=CARTESIAN_POINT('',(57.15,-35.406317196031,23.7625));
#798=CARTESIAN_POINT('Origin',(54.5,-35.406317196031,22.3625));
#799=CARTESIAN_POINT('Origin',(54.5,-35.406317196031,22.3625));
#800=CARTESIAN_POINT('',(53.,-35.406317196031,22.3625));
#801=CARTESIAN_POINT('Origin',(54.5,-35.406317196031,22.3625));
#802=CARTESIAN_POINT('Origin',(34.5,-35.406317196031,-23.7625));
#803=CARTESIAN_POINT('',(31.85,-35.406317196031,-23.7625));
#804=CARTESIAN_POINT('Origin',(34.5,-35.406317196031,-23.7625));
#805=CARTESIAN_POINT('',(32.0968577729919,-35.406317196031,-22.3625));
#806=CARTESIAN_POINT('',(31.85,-35.406317196031,-23.7625));
#807=CARTESIAN_POINT('Origin',(34.5,-35.406317196031,-22.3625));
#808=CARTESIAN_POINT('Origin',(34.5,-35.406317196031,-22.3625));
#809=CARTESIAN_POINT('',(33.,-35.406317196031,-22.3625));
#810=CARTESIAN_POINT('Origin',(34.5,-35.406317196031,-22.3625));
#811=CARTESIAN_POINT('Origin',(54.5,-35.406317196031,-23.7625));
#812=CARTESIAN_POINT('',(51.85,-35.406317196031,-23.7625));
#813=CARTESIAN_POINT('Origin',(54.5,-35.406317196031,-23.7625));
#814=CARTESIAN_POINT('',(52.0968577729919,-35.406317196031,-22.3625));
#815=CARTESIAN_POINT('',(51.85,-35.406317196031,-23.7625));
#816=CARTESIAN_POINT('Origin',(54.5,-35.406317196031,-22.3625));
#817=CARTESIAN_POINT('Origin',(54.5,-35.406317196031,-22.3625));
#818=CARTESIAN_POINT('',(53.,-35.406317196031,-22.3625));
#819=CARTESIAN_POINT('Origin',(54.5,-35.406317196031,-22.3625));
#820=CARTESIAN_POINT('Origin',(54.5,-35.406317196031,-23.7625));
#821=CARTESIAN_POINT('',(53.,-35.406317196031,-17.5625));
#822=CARTESIAN_POINT('',(53.,-35.406317196031,-23.7625));
#823=CARTESIAN_POINT('Origin',(54.5,-35.406317196031,-17.5625));
#824=CARTESIAN_POINT('Origin',(54.5,-35.406317196031,-23.7625));
#825=CARTESIAN_POINT('',(53.,-35.406317196031,17.5625));
#826=CARTESIAN_POINT('Origin',(54.5,-35.406317196031,17.5625));
#827=CARTESIAN_POINT('',(53.,-35.406317196031,-23.7625));
#828=CARTESIAN_POINT('Origin',(34.5,-35.406317196031,-23.7625));
#829=CARTESIAN_POINT('',(33.,-35.406317196031,-17.5625));
#830=CARTESIAN_POINT('',(33.,-35.406317196031,-23.7625));
#831=CARTESIAN_POINT('Origin',(34.5,-35.406317196031,-17.5625));
#832=CARTESIAN_POINT('Origin',(34.5,-35.406317196031,-23.7625));
#833=CARTESIAN_POINT('',(33.,-35.406317196031,17.5625));
#834=CARTESIAN_POINT('Origin',(34.5,-35.406317196031,17.5625));
#835=CARTESIAN_POINT('',(33.,-35.406317196031,-23.7625));
#836=CARTESIAN_POINT('Origin',(19.5,-38.506317196031,23.7625));
#837=CARTESIAN_POINT('',(27.,-38.506317196031,17.5625));
#838=CARTESIAN_POINT('',(27.,-38.506317196031,23.7625));
#839=CARTESIAN_POINT('',(27.,-38.506317196031,17.5625));
#840=CARTESIAN_POINT('',(62.,-38.506317196031,17.5625));
#841=CARTESIAN_POINT('',(19.5,-38.506317196031,17.5625));
#842=CARTESIAN_POINT('',(62.,-38.506317196031,23.7625));
#843=CARTESIAN_POINT('',(62.,-38.506317196031,17.5625));
#844=CARTESIAN_POINT('',(19.5,-38.506317196031,23.7625));
#845=CARTESIAN_POINT('Origin',(19.5,-38.506317196031,17.5625));
#846=CARTESIAN_POINT('',(27.,-32.306317196031,17.5625));
#847=CARTESIAN_POINT('',(27.,-32.306317196031,17.5625));
#848=CARTESIAN_POINT('',(62.,-32.306317196031,17.5625));
#849=CARTESIAN_POINT('',(19.5,-32.306317196031,17.5625));
#850=CARTESIAN_POINT('',(62.,-32.306317196031,17.5625));
#851=CARTESIAN_POINT('Origin',(19.5,-32.306317196031,17.5625));
#852=CARTESIAN_POINT('',(27.,-32.306317196031,23.7625));
#853=CARTESIAN_POINT('',(27.,-32.306317196031,23.7625));
#854=CARTESIAN_POINT('',(62.,-32.306317196031,23.7625));
#855=CARTESIAN_POINT('',(19.5,-32.306317196031,23.7625));
#856=CARTESIAN_POINT('',(62.,-32.306317196031,23.7625));
#857=CARTESIAN_POINT('Origin',(62.,-35.406317196031,20.6625));
#858=CARTESIAN_POINT('',(62.,-38.506317196031,23.7625));
#859=CARTESIAN_POINT('Origin',(19.5,-38.506317196031,-17.5625));
#860=CARTESIAN_POINT('',(27.,-38.506317196031,-23.7625));
#861=CARTESIAN_POINT('',(27.,-38.506317196031,-17.5625));
#862=CARTESIAN_POINT('',(27.,-38.506317196031,-23.7625));
#863=CARTESIAN_POINT('',(62.,-38.506317196031,-23.7625));
#864=CARTESIAN_POINT('',(19.5,-38.506317196031,-23.7625));
#865=CARTESIAN_POINT('',(62.,-38.506317196031,-17.5625));
#866=CARTESIAN_POINT('',(62.,-38.506317196031,-23.7625));
#867=CARTESIAN_POINT('',(19.5,-38.506317196031,-17.5625));
#868=CARTESIAN_POINT('Origin',(19.5,-32.306317196031,-17.5625));
#869=CARTESIAN_POINT('',(27.,-32.306317196031,-17.5625));
#870=CARTESIAN_POINT('',(27.,-38.506317196031,-17.5625));
#871=CARTESIAN_POINT('',(62.,-32.306317196031,-17.5625));
#872=CARTESIAN_POINT('',(62.,-38.506317196031,-17.5625));
#873=CARTESIAN_POINT('',(19.5,-32.306317196031,-17.5625));
#874=CARTESIAN_POINT('Origin',(19.5,-32.306317196031,-23.7625));
#875=CARTESIAN_POINT('',(27.,-32.306317196031,-23.7625));
#876=CARTESIAN_POINT('',(27.,-32.306317196031,-17.5625));
#877=CARTESIAN_POINT('',(62.,-32.306317196031,-23.7625));
#878=CARTESIAN_POINT('',(62.,-32.306317196031,-17.5625));
#879=CARTESIAN_POINT('',(19.5,-32.306317196031,-23.7625));
#880=CARTESIAN_POINT('Origin',(62.,-35.406317196031,-20.6625));
#881=CARTESIAN_POINT('',(62.,-32.306317196031,-23.7625));
#882=CARTESIAN_POINT('Origin',(19.5,-24.5,14.5));
#883=CARTESIAN_POINT('',(23.5,-27.6,14.5));
#884=CARTESIAN_POINT('Origin',(23.5,-24.5,14.5));
#885=CARTESIAN_POINT('',(19.5,-27.6,14.5));
#886=CARTESIAN_POINT('',(19.5,-27.6,14.5));
#887=CARTESIAN_POINT('Origin',(19.5,-24.5,14.5));
#888=CARTESIAN_POINT('Origin',(23.5,-24.5,14.5));
#889=CARTESIAN_POINT('',(23.5,-28.9999999999999,14.5));
#890=CARTESIAN_POINT('Origin',(23.5,-24.5,14.5));
#891=CARTESIAN_POINT('Origin',(19.5,-24.5,-14.5));
#892=CARTESIAN_POINT('',(23.5,-27.6,-14.5));
#893=CARTESIAN_POINT('Origin',(23.5,-24.5,-14.5));
#894=CARTESIAN_POINT('',(19.5,-27.6,-14.5));
#895=CARTESIAN_POINT('',(19.5,-27.6,-14.5));
#896=CARTESIAN_POINT('Origin',(19.5,-24.5,-14.5));
#897=CARTESIAN_POINT('Origin',(23.5,-24.5,-14.5));
#898=CARTESIAN_POINT('',(23.5,-29.,-14.5));
#899=CARTESIAN_POINT('Origin',(23.5,-24.5,-14.5));
#900=CARTESIAN_POINT('Origin',(19.5,-24.5,-14.5));
#901=CARTESIAN_POINT('',(27.,-29.,-14.5));
#902=CARTESIAN_POINT('Origin',(27.,-24.5,-14.5));
#903=CARTESIAN_POINT('',(19.5,-29.,-14.5));
#904=CARTESIAN_POINT('Origin',(19.5,-24.5,14.5));
#905=CARTESIAN_POINT('',(27.,-28.9999999999999,14.5));
#906=CARTESIAN_POINT('Origin',(27.,-24.5,14.5));
#907=CARTESIAN_POINT('',(19.5,-28.9999999999999,14.5));
#908=CARTESIAN_POINT('Origin',(19.5,-44.9999995232,23.7625));
#909=CARTESIAN_POINT('',(19.5,-44.9999995232,-23.7625));
#910=CARTESIAN_POINT('',(19.5,-44.9999995232,23.7625));
#911=CARTESIAN_POINT('',(19.5,-44.9999995232,-23.7625));
#912=CARTESIAN_POINT('',(27.,-44.9999995232,-23.7625));
#913=CARTESIAN_POINT('',(19.5,-44.9999995232,-23.7625));
#914=CARTESIAN_POINT('',(27.,-44.9999995232,23.7625));
#915=CARTESIAN_POINT('',(27.,-44.9999995232,-23.7625));
#916=CARTESIAN_POINT('',(19.5,-44.9999995232,23.7625));
#917=CARTESIAN_POINT('Origin',(19.5,-38.506317196031,23.7625));
#918=CARTESIAN_POINT('',(19.5,-14.9999995232,23.7625));
#919=CARTESIAN_POINT('',(19.5,-44.9999995232,23.7625));
#920=CARTESIAN_POINT('',(27.,-44.9999995232,23.7625));
#921=CARTESIAN_POINT('',(27.,-14.9999995232,23.7625));
#922=CARTESIAN_POINT('',(27.,-44.9999995232,23.7625));
#923=CARTESIAN_POINT('',(19.5,-14.9999995232,23.7625));
#924=CARTESIAN_POINT('Origin',(19.5,-14.9999995232,-23.7625));
#925=CARTESIAN_POINT('',(19.5,-14.9999995232,-23.7625));
#926=CARTESIAN_POINT('',(19.5,-14.9999995232,23.7625));
#927=CARTESIAN_POINT('',(27.,-14.9999995232,-23.7625));
#928=CARTESIAN_POINT('',(27.,-14.9999995232,23.7625));
#929=CARTESIAN_POINT('',(19.5,-14.9999995232,-23.7625));
#930=CARTESIAN_POINT('Origin',(19.5,-44.9999995232,-23.7625));
#931=CARTESIAN_POINT('',(19.5,-14.9999995232,-23.7625));
#932=CARTESIAN_POINT('',(27.,-14.9999995232,-23.7625));
#933=CARTESIAN_POINT('',(27.,-14.9999995232,-23.7625));
#934=CARTESIAN_POINT('Origin',(27.,-29.9999995232,0.));
#935=CARTESIAN_POINT('Origin',(19.5,-29.9999995232,0.));
#936=UNCERTAINTY_MEASURE_WITH_UNIT(LENGTH_MEASURE(0.01),#940,
'DISTANCE_ACCURACY_VALUE',
'Maximum model space distance between geometric entities at asserted c
onnectivities');
#937=UNCERTAINTY_MEASURE_WITH_UNIT(LENGTH_MEASURE(0.01),#940,
'DISTANCE_ACCURACY_VALUE',
'Maximum model space distance between geometric entities at asserted c
onnectivities');
#938=(
GEOMETRIC_REPRESENTATION_CONTEXT(3)
GLOBAL_UNCERTAINTY_ASSIGNED_CONTEXT((#936))
GLOBAL_UNIT_ASSIGNED_CONTEXT((#940,#941,#942))
REPRESENTATION_CONTEXT('','3D')
);
#939=(
GEOMETRIC_REPRESENTATION_CONTEXT(3)
GLOBAL_UNCERTAINTY_ASSIGNED_CONTEXT((#937))
GLOBAL_UNIT_ASSIGNED_CONTEXT((#940,#941,#942))
REPRESENTATION_CONTEXT('','3D')
);
#940=(
LENGTH_UNIT()
NAMED_UNIT(*)
SI_UNIT(.MILLI.,.METRE.)
);
#941=(
NAMED_UNIT(*)
PLANE_ANGLE_UNIT()
SI_UNIT($,.RADIAN.)
);
#942=(
NAMED_UNIT(*)
SI_UNIT($,.STERADIAN.)
SOLID_ANGLE_UNIT()
);
#943=SHAPE_DEFINITION_REPRESENTATION(#944,#945);
#944=PRODUCT_DEFINITION_SHAPE('',$,#947);
#945=SHAPE_REPRESENTATION('',(#564),#938);
#946=PRODUCT_DEFINITION_CONTEXT('part definition',#951,'design');
#947=PRODUCT_DEFINITION('LWR50L-23-00004-A(000)','(Nicht gespeichert)',
#948,#946);
#948=PRODUCT_DEFINITION_FORMATION('',$,#953);
#949=PRODUCT_RELATED_PRODUCT_CATEGORY('(Nicht gespeichert)',
'(Nicht gespeichert)',(#953));
#950=APPLICATION_PROTOCOL_DEFINITION('international standard',
'automotive_design',2009,#951);
#951=APPLICATION_CONTEXT(
'Core Data for Automotive Mechanical Design Process');
#952=PRODUCT_CONTEXT('part definition',#951,'mechanical');
#953=PRODUCT('LWR50L-23-00004-A(000)','(Nicht gespeichert)',
'STEP AP242',(#952));
#954=PRESENTATION_STYLE_ASSIGNMENT((#955));
#955=SURFACE_STYLE_USAGE(.BOTH.,#956);
#956=SURFACE_SIDE_STYLE('',(#957));
#957=SURFACE_STYLE_FILL_AREA(#958);
#958=FILL_AREA_STYLE('Stahl - satiniert',(#959));
#959=FILL_AREA_STYLE_COLOUR('Stahl - satiniert',#960);
#960=COLOUR_RGB('Stahl - satiniert',0.627450980392157,0.627450980392157,
0.627450980392157);
ENDSEC;
END-ISO-10303-21;
